{
	"asset":{
		"generator":"Khronos glTF Blender I/O v4.4.56",
		"version":"2.0"
	},
	"scene":0,
	"scenes":[
		{
			"name":"Scene",
			"nodes":[
				0,
				1,
				2,
				3,
				4,
				5,
				6,
				7,
				8,
				9,
				10,
				11,
				12,
				13,
				14,
				15,
				16
			]
		}
	],
	"nodes":[
		{
			"name":"\u7a7a\u7269\u4f53",
			"rotation":[
				0.7071068286895752,
				0,
				0,
				0.7071068286895752
			]
		},
		{
			"mesh":0,
			"name":"\u73af\u4f53.001",
			"rotation":[
				-0.2585248649120331,
				-0.9401368498802185,
				0.21089640259742737,
				0.06950045377016068
			],
			"scale":[
				-0.9548572897911072,
				-1.0710877180099487,
				-0.9548572301864624
			],
			"translation":[
				-0.03430479019880295,
				1.1078869104385376,
				-0.2921265661716461
			]
		},
		{
			"mesh":1,
			"name":"\u73af\u4f53.002",
			"rotation":[
				-0.2166706770658493,
				0.04681951925158501,
				-0.2534169852733612,
				0.9416165947914124
			],
			"scale":[
				0.7489409446716309,
				0.7489408850669861,
				0.7489409446716309
			],
			"translation":[
				0.15319310128688812,
				1.382828950881958,
				-0.49077296257019043
			]
		},
		{
			"mesh":2,
			"name":"\u73af\u4f53.003",
			"rotation":[
				-0.2585248351097107,
				-0.9401368498802185,
				0.21089640259742737,
				0.06950046122074127
			],
			"scale":[
				-0.400873064994812,
				-0.7411189675331116,
				-0.43443959951400757
			],
			"translation":[
				0.30615681409835815,
				1.6090173721313477,
				-0.6071553230285645
			]
		},
		{
			"mesh":3,
			"name":"\u73af\u4f53.004",
			"rotation":[
				0,
				0,
				0.17089621722698212,
				0.9852890372276306
			],
			"scale":[
				0.8564755320549011,
				1.007204294204712,
				0.8564755320549011
			],
			"translation":[
				0.16111637651920319,
				-1.2261723279953003,
				-0.0105578089132905
			]
		},
		{
			"mesh":4,
			"name":"\u73af\u4f53.005",
			"rotation":[
				0,
				0,
				0.17089621722698212,
				0.9852890372276306
			],
			"scale":[
				0.6367477178573608,
				0.7488073706626892,
				0.6367477774620056
			],
			"translation":[
				0.014224044978618622,
				-0.8299294710159302,
				-0.057105399668216705
			]
		},
		{
			"mesh":5,
			"name":"\u73af\u4f53.006",
			"rotation":[
				0.1824015974998474,
				0.6958863139152527,
				0.5177612900733948,
				0.46302831172943115
			],
			"scale":[
				0.15657003223896027,
				0.15657003223896027,
				0.15657001733779907
			],
			"translation":[
				-0.9758030772209167,
				-0.11194354295730591,
				0.7242923378944397
			]
		},
		{
			"mesh":6,
			"name":"\u7403\u4f53",
			"rotation":[
				-0.045648325234651566,
				-4.119680852454621e-06,
				-0.26172831654548645,
				0.9640615582466125
			],
			"scale":[
				1.0391714572906494,
				1.0901262760162354,
				1.039171576499939
			],
			"translation":[
				-0.43042659759521484,
				0.3789500594139099,
				0.053370535373687744
			]
		},
		{
			"mesh":7,
			"name":"\u7403\u4f53.001",
			"scale":[
				0.34275543689727783,
				0.34275543689727783,
				0.34275543689727783
			],
			"translation":[
				-1.147648811340332,
				0.8015709519386292,
				0.4916723072528839
			]
		},
		{
			"mesh":8,
			"name":"\u7403\u4f53.002",
			"scale":[
				0.34275543689727783,
				0.34275543689727783,
				0.34275543689727783
			],
			"translation":[
				-0.3038228750228882,
				0.5401296019554138,
				0.9287700653076172
			]
		},
		{
			"mesh":9,
			"name":"\u7403\u4f53.003",
			"scale":[
				0.17264491319656372,
				0.17264491319656372,
				0.17264491319656372
			],
			"translation":[
				-1.132535457611084,
				0.7503389120101929,
				0.7092626094818115
			]
		},
		{
			"mesh":10,
			"name":"\u7403\u4f53.004",
			"scale":[
				0.17264491319656372,
				0.17264491319656372,
				0.17264491319656372
			],
			"translation":[
				-0.22680990397930145,
				0.47006046772003174,
				1.1301113367080688
			]
		},
		{
			"mesh":11,
			"name":"\u7403\u4f53.005",
			"scale":[
				0.21118837594985962,
				0.21118837594985962,
				0.21118837594985962
			],
			"translation":[
				0.46130627393722534,
				-0.07410489022731781,
				0.41989371180534363
			]
		},
		{
			"mesh":12,
			"name":"\u7acb\u65b9\u4f53",
			"rotation":[
				0.13504640758037567,
				-0.556002676486969,
				0.6095408201217651,
				0.548710823059082
			],
			"scale":[
				0.30330052971839905,
				0.12700803577899933,
				0.4436798095703125
			],
			"translation":[
				-0.7012584209442139,
				0.433144211769104,
				0.7071791887283325
			]
		},
		{
			"mesh":13,
			"name":"\u7acb\u65b9\u4f53.001",
			"rotation":[
				-0.018500469624996185,
				0.2632441222667694,
				0.21851874887943268,
				0.9394732713699341
			],
			"scale":[
				0.08736896514892578,
				2.2007908821105957,
				0.4922185242176056
			],
			"translation":[
				1.3395243883132935,
				-0.5970926284790039,
				-0.6672891974449158
			]
		},
		{
			"mesh":14,
			"name":"\u7acb\u65b9\u4f53.002",
			"rotation":[
				-0.01850048452615738,
				0.2632441222667694,
				0.21851874887943268,
				0.9394732713699341
			],
			"scale":[
				0.14698852598667145,
				0.5882081389427185,
				0.6057406663894653
			],
			"translation":[
				2.046039581298828,
				-2.116297721862793,
				-0.8022421598434448
			]
		},
		{
			"mesh":15,
			"name":"\u9525\u4f53",
			"rotation":[
				0,
				0,
				0.08473419398069382,
				0.9964036345481873
			],
			"scale":[
				1.1630061864852905,
				1.6005293130874634,
				1.163006067276001
			],
			"translation":[
				0.19748347997665405,
				-1.6308443546295166,
				0.03226885199546814
			]
		}
	],
	"materials":[
		{
			"doubleSided":true,
			"name":"header",
			"pbrMetallicRoughness":{
				"baseColorFactor":[
					0.027320124208927155,
					0.13843150436878204,
					0.7991031408309937,
					1
				],
				"metallicFactor":0.5709342360496521,
				"roughnessFactor":0.3166089951992035
			}
		},
		{
			"doubleSided":true,
			"name":"header_01",
			"pbrMetallicRoughness":{
				"baseColorFactor":[
					0.7990984916687012,
					0.38132646679878235,
					0.057805534452199936,
					1
				],
				"metallicFactor":0,
				"roughnessFactor":0.5
			}
		},
		{
			"doubleSided":true,
			"name":"hair",
			"pbrMetallicRoughness":{
				"baseColorFactor":[
					0.7990986108779907,
					0.25818315148353577,
					0.06301010400056839,
					1
				],
				"metallicFactor":0,
				"roughnessFactor":0.5
			}
		},
		{
			"doubleSided":true,
			"name":"bozi",
			"pbrMetallicRoughness":{
				"metallicFactor":0.07612456381320953,
				"roughnessFactor":0.019031137228012085
			}
		},
		{
			"doubleSided":true,
			"name":"mouse",
			"pbrMetallicRoughness":{
				"baseColorFactor":[
					0.8001489639282227,
					0.1823948323726654,
					0.14796887338161469,
					1
				],
				"metallicFactor":0.10380622744560242,
				"roughnessFactor":0.23010382056236267
			}
		},
		{
			"doubleSided":true,
			"name":"face",
			"pbrMetallicRoughness":{
				"baseColorFactor":[
					0.800315260887146,
					0.5299081802368164,
					0.30447834730148315,
					1
				],
				"metallicFactor":0,
				"roughnessFactor":0.5
			}
		},
		{
			"doubleSided":true,
			"name":"eyes",
			"pbrMetallicRoughness":{
				"metallicFactor":0.09688611328601837,
				"roughnessFactor":0.04325259104371071
			}
		},
		{
			"doubleSided":true,
			"name":"eye",
			"pbrMetallicRoughness":{
				"baseColorFactor":[
					0,
					0,
					0,
					1
				],
				"metallicFactor":0,
				"roughnessFactor":0.5
			}
		}
	],
	"meshes":[
		{
			"name":"\u73af\u4f53.001",
			"primitives":[
				{
					"attributes":{
						"POSITION":0,
						"NORMAL":1,
						"TEXCOORD_0":2
					},
					"indices":3,
					"material":0
				}
			]
		},
		{
			"name":"\u73af\u4f53.002",
			"primitives":[
				{
					"attributes":{
						"POSITION":4,
						"NORMAL":5,
						"TEXCOORD_0":6
					},
					"indices":7,
					"material":1
				}
			]
		},
		{
			"name":"\u73af\u4f53.003",
			"primitives":[
				{
					"attributes":{
						"POSITION":8,
						"NORMAL":9,
						"TEXCOORD_0":10
					},
					"indices":3,
					"material":2
				}
			]
		},
		{
			"name":"\u73af\u4f53.004",
			"primitives":[
				{
					"attributes":{
						"POSITION":11,
						"NORMAL":12,
						"TEXCOORD_0":13
					},
					"indices":7,
					"material":2
				}
			]
		},
		{
			"name":"\u73af\u4f53.005",
			"primitives":[
				{
					"attributes":{
						"POSITION":14,
						"NORMAL":15,
						"TEXCOORD_0":16
					},
					"indices":7,
					"material":3
				}
			]
		},
		{
			"name":"\u73af\u4f53.006",
			"primitives":[
				{
					"attributes":{
						"POSITION":17,
						"NORMAL":18,
						"TEXCOORD_0":19
					},
					"indices":7,
					"material":4
				}
			]
		},
		{
			"name":"\u7403\u4f53.001",
			"primitives":[
				{
					"attributes":{
						"POSITION":20,
						"NORMAL":21,
						"TEXCOORD_0":22
					},
					"indices":23,
					"material":5
				}
			]
		},
		{
			"name":"\u7403\u4f53.002",
			"primitives":[
				{
					"attributes":{
						"POSITION":24,
						"NORMAL":25,
						"TEXCOORD_0":26
					},
					"indices":27,
					"material":6
				}
			]
		},
		{
			"name":"\u7403\u4f53.003",
			"primitives":[
				{
					"attributes":{
						"POSITION":28,
						"NORMAL":29,
						"TEXCOORD_0":30
					},
					"indices":27,
					"material":6
				}
			]
		},
		{
			"name":"\u7403\u4f53.004",
			"primitives":[
				{
					"attributes":{
						"POSITION":31,
						"NORMAL":32,
						"TEXCOORD_0":33
					},
					"indices":34,
					"material":7
				}
			]
		},
		{
			"name":"\u7403\u4f53.006",
			"primitives":[
				{
					"attributes":{
						"POSITION":35,
						"NORMAL":36,
						"TEXCOORD_0":37
					},
					"indices":34,
					"material":7
				}
			]
		},
		{
			"name":"\u7403\u4f53.007",
			"primitives":[
				{
					"attributes":{
						"POSITION":38,
						"NORMAL":39,
						"TEXCOORD_0":40
					},
					"indices":41,
					"material":3
				}
			]
		},
		{
			"name":"\u7acb\u65b9\u4f53",
			"primitives":[
				{
					"attributes":{
						"POSITION":42,
						"NORMAL":43,
						"TEXCOORD_0":44
					},
					"indices":45,
					"material":5
				}
			]
		},
		{
			"name":"\u7acb\u65b9\u4f53.001",
			"primitives":[
				{
					"attributes":{
						"POSITION":46,
						"NORMAL":47,
						"TEXCOORD_0":48
					},
					"indices":45,
					"material":2
				}
			]
		},
		{
			"name":"\u7acb\u65b9\u4f53.002",
			"primitives":[
				{
					"attributes":{
						"POSITION":49,
						"NORMAL":50,
						"TEXCOORD_0":51
					},
					"indices":45
				}
			]
		},
		{
			"name":"\u9525\u4f53",
			"primitives":[
				{
					"attributes":{
						"POSITION":52,
						"NORMAL":53,
						"TEXCOORD_0":54
					},
					"indices":55,
					"material":1
				}
			]
		}
	],
	"accessors":[
		{
			"bufferView":0,
			"componentType":5126,
			"count":1071,
			"max":[
				1.2700002193450928,
				0.3900001049041748,
				1.2674942016601562
			],
			"min":[
				-1.2700002193450928,
				-0.3900001049041748,
				-1.2674942016601562
			],
			"type":"VEC3"
		},
		{
			"bufferView":1,
			"componentType":5126,
			"count":1071,
			"type":"VEC3"
		},
		{
			"bufferView":2,
			"componentType":5126,
			"count":1071,
			"type":"VEC2"
		},
		{
			"bufferView":3,
			"componentType":5123,
			"count":6000,
			"type":"SCALAR"
		},
		{
			"bufferView":4,
			"componentType":5126,
			"count":1479,
			"max":[
				1.0800001621246338,
				0.2800000011920929,
				1.0778690576553345
			],
			"min":[
				-1.0800001621246338,
				-0.2800000011920929,
				-1.0778690576553345
			],
			"type":"VEC3"
		},
		{
			"bufferView":5,
			"componentType":5126,
			"count":1479,
			"type":"VEC3"
		},
		{
			"bufferView":6,
			"componentType":5126,
			"count":1479,
			"type":"VEC2"
		},
		{
			"bufferView":7,
			"componentType":5123,
			"count":8400,
			"type":"SCALAR"
		},
		{
			"bufferView":8,
			"componentType":5126,
			"count":1071,
			"max":[
				1.2700002193450928,
				0.3900001049041748,
				1.2674942016601562
			],
			"min":[
				-1.2700002193450928,
				-0.3900001049041748,
				-1.2674942016601562
			],
			"type":"VEC3"
		},
		{
			"bufferView":9,
			"componentType":5126,
			"count":1071,
			"type":"VEC3"
		},
		{
			"bufferView":10,
			"componentType":5126,
			"count":1071,
			"type":"VEC2"
		},
		{
			"bufferView":11,
			"componentType":5126,
			"count":1479,
			"max":[
				1.0800001621246338,
				0.2800000011920929,
				1.0778690576553345
			],
			"min":[
				-1.0800001621246338,
				-0.2800000011920929,
				-1.0778690576553345
			],
			"type":"VEC3"
		},
		{
			"bufferView":12,
			"componentType":5126,
			"count":1479,
			"type":"VEC3"
		},
		{
			"bufferView":13,
			"componentType":5126,
			"count":1479,
			"type":"VEC2"
		},
		{
			"bufferView":14,
			"componentType":5126,
			"count":1479,
			"max":[
				1.0800001621246338,
				0.2800000011920929,
				1.0778690576553345
			],
			"min":[
				-1.0800001621246338,
				-0.2800000011920929,
				-1.0778690576553345
			],
			"type":"VEC3"
		},
		{
			"bufferView":15,
			"componentType":5126,
			"count":1479,
			"type":"VEC3"
		},
		{
			"bufferView":16,
			"componentType":5126,
			"count":1479,
			"type":"VEC2"
		},
		{
			"bufferView":17,
			"componentType":5126,
			"count":1479,
			"max":[
				1.0800001621246338,
				0.2800000011920929,
				1.0778690576553345
			],
			"min":[
				-1.0800001621246338,
				-0.2800000011920929,
				-1.0778690576553345
			],
			"type":"VEC3"
		},
		{
			"bufferView":18,
			"componentType":5126,
			"count":1479,
			"type":"VEC3"
		},
		{
			"bufferView":19,
			"componentType":5126,
			"count":1479,
			"type":"VEC2"
		},
		{
			"bufferView":20,
			"componentType":5126,
			"count":559,
			"max":[
				0.9799997806549072,
				0.9800000190734863,
				0.9799996018409729
			],
			"min":[
				-0.9799994230270386,
				-0.9800000190734863,
				-0.9799992442131042
			],
			"type":"VEC3"
		},
		{
			"bufferView":21,
			"componentType":5126,
			"count":559,
			"type":"VEC3"
		},
		{
			"bufferView":22,
			"componentType":5126,
			"count":559,
			"type":"VEC2"
		},
		{
			"bufferView":23,
			"componentType":5123,
			"count":2880,
			"type":"SCALAR"
		},
		{
			"bufferView":24,
			"componentType":5126,
			"count":559,
			"max":[
				0.9799997806549072,
				0.9800000190734863,
				0.9799996018409729
			],
			"min":[
				-0.9799994230270386,
				-0.9800000190734863,
				-0.9799992442131042
			],
			"type":"VEC3"
		},
		{
			"bufferView":25,
			"componentType":5126,
			"count":559,
			"type":"VEC3"
		},
		{
			"bufferView":26,
			"componentType":5126,
			"count":559,
			"type":"VEC2"
		},
		{
			"bufferView":27,
			"componentType":5123,
			"count":2880,
			"type":"SCALAR"
		},
		{
			"bufferView":28,
			"componentType":5126,
			"count":559,
			"max":[
				0.9799997806549072,
				0.9800000190734863,
				0.9799996018409729
			],
			"min":[
				-0.9799994230270386,
				-0.9800000190734863,
				-0.9799992442131042
			],
			"type":"VEC3"
		},
		{
			"bufferView":29,
			"componentType":5126,
			"count":559,
			"type":"VEC3"
		},
		{
			"bufferView":30,
			"componentType":5126,
			"count":559,
			"type":"VEC2"
		},
		{
			"bufferView":31,
			"componentType":5126,
			"count":559,
			"max":[
				0.9799997806549072,
				0.9800000190734863,
				0.9799996018409729
			],
			"min":[
				-0.9799994230270386,
				-0.9800000190734863,
				-0.9799992442131042
			],
			"type":"VEC3"
		},
		{
			"bufferView":32,
			"componentType":5126,
			"count":559,
			"type":"VEC3"
		},
		{
			"bufferView":33,
			"componentType":5126,
			"count":559,
			"type":"VEC2"
		},
		{
			"bufferView":34,
			"componentType":5123,
			"count":2880,
			"type":"SCALAR"
		},
		{
			"bufferView":35,
			"componentType":5126,
			"count":559,
			"max":[
				0.9799997806549072,
				0.9800000190734863,
				0.9799996018409729
			],
			"min":[
				-0.9799994230270386,
				-0.9800000190734863,
				-0.9799992442131042
			],
			"type":"VEC3"
		},
		{
			"bufferView":36,
			"componentType":5126,
			"count":559,
			"type":"VEC3"
		},
		{
			"bufferView":37,
			"componentType":5126,
			"count":559,
			"type":"VEC2"
		},
		{
			"bufferView":38,
			"componentType":5126,
			"count":559,
			"max":[
				0.9799997806549072,
				0.9800000190734863,
				0.9799996018409729
			],
			"min":[
				-0.9799994230270386,
				-0.9800000190734863,
				-0.9799992442131042
			],
			"type":"VEC3"
		},
		{
			"bufferView":39,
			"componentType":5126,
			"count":559,
			"type":"VEC3"
		},
		{
			"bufferView":40,
			"componentType":5126,
			"count":559,
			"type":"VEC2"
		},
		{
			"bufferView":41,
			"componentType":5123,
			"count":2880,
			"type":"SCALAR"
		},
		{
			"bufferView":42,
			"componentType":5126,
			"count":24,
			"max":[
				1,
				1,
				1
			],
			"min":[
				-1,
				-1,
				-1
			],
			"type":"VEC3"
		},
		{
			"bufferView":43,
			"componentType":5126,
			"count":24,
			"type":"VEC3"
		},
		{
			"bufferView":44,
			"componentType":5126,
			"count":24,
			"type":"VEC2"
		},
		{
			"bufferView":45,
			"componentType":5123,
			"count":36,
			"type":"SCALAR"
		},
		{
			"bufferView":46,
			"componentType":5126,
			"count":24,
			"max":[
				1,
				1,
				1
			],
			"min":[
				-1,
				-1,
				-1
			],
			"type":"VEC3"
		},
		{
			"bufferView":47,
			"componentType":5126,
			"count":24,
			"type":"VEC3"
		},
		{
			"bufferView":48,
			"componentType":5126,
			"count":24,
			"type":"VEC2"
		},
		{
			"bufferView":49,
			"componentType":5126,
			"count":24,
			"max":[
				1,
				1,
				1
			],
			"min":[
				-1,
				-1,
				-1
			],
			"type":"VEC3"
		},
		{
			"bufferView":50,
			"componentType":5126,
			"count":24,
			"type":"VEC3"
		},
		{
			"bufferView":51,
			"componentType":5126,
			"count":24,
			"type":"VEC2"
		},
		{
			"bufferView":52,
			"componentType":5126,
			"count":150,
			"max":[
				1.1289818286895752,
				1,
				1.1259291172027588
			],
			"min":[
				-1.1289818286895752,
				-1,
				-1.1299999952316284
			],
			"type":"VEC3"
		},
		{
			"bufferView":53,
			"componentType":5126,
			"count":150,
			"type":"VEC3"
		},
		{
			"bufferView":54,
			"componentType":5126,
			"count":150,
			"type":"VEC2"
		},
		{
			"bufferView":55,
			"componentType":5123,
			"count":432,
			"type":"SCALAR"
		}
	],
	"bufferViews":[
		{
			"buffer":0,
			"byteLength":12852,
			"byteOffset":0,
			"target":34962
		},
		{
			"buffer":0,
			"byteLength":12852,
			"byteOffset":12852,
			"target":34962
		},
		{
			"buffer":0,
			"byteLength":8568,
			"byteOffset":25704,
			"target":34962
		},
		{
			"buffer":0,
			"byteLength":12000,
			"byteOffset":34272,
			"target":34963
		},
		{
			"buffer":0,
			"byteLength":17748,
			"byteOffset":46272,
			"target":34962
		},
		{
			"buffer":0,
			"byteLength":17748,
			"byteOffset":64020,
			"target":34962
		},
		{
			"buffer":0,
			"byteLength":11832,
			"byteOffset":81768,
			"target":34962
		},
		{
			"buffer":0,
			"byteLength":16800,
			"byteOffset":93600,
			"target":34963
		},
		{
			"buffer":0,
			"byteLength":12852,
			"byteOffset":110400,
			"target":34962
		},
		{
			"buffer":0,
			"byteLength":12852,
			"byteOffset":123252,
			"target":34962
		},
		{
			"buffer":0,
			"byteLength":8568,
			"byteOffset":136104,
			"target":34962
		},
		{
			"buffer":0,
			"byteLength":17748,
			"byteOffset":144672,
			"target":34962
		},
		{
			"buffer":0,
			"byteLength":17748,
			"byteOffset":162420,
			"target":34962
		},
		{
			"buffer":0,
			"byteLength":11832,
			"byteOffset":180168,
			"target":34962
		},
		{
			"buffer":0,
			"byteLength":17748,
			"byteOffset":192000,
			"target":34962
		},
		{
			"buffer":0,
			"byteLength":17748,
			"byteOffset":209748,
			"target":34962
		},
		{
			"buffer":0,
			"byteLength":11832,
			"byteOffset":227496,
			"target":34962
		},
		{
			"buffer":0,
			"byteLength":17748,
			"byteOffset":239328,
			"target":34962
		},
		{
			"buffer":0,
			"byteLength":17748,
			"byteOffset":257076,
			"target":34962
		},
		{
			"buffer":0,
			"byteLength":11832,
			"byteOffset":274824,
			"target":34962
		},
		{
			"buffer":0,
			"byteLength":6708,
			"byteOffset":286656,
			"target":34962
		},
		{
			"buffer":0,
			"byteLength":6708,
			"byteOffset":293364,
			"target":34962
		},
		{
			"buffer":0,
			"byteLength":4472,
			"byteOffset":300072,
			"target":34962
		},
		{
			"buffer":0,
			"byteLength":5760,
			"byteOffset":304544,
			"target":34963
		},
		{
			"buffer":0,
			"byteLength":6708,
			"byteOffset":310304,
			"target":34962
		},
		{
			"buffer":0,
			"byteLength":6708,
			"byteOffset":317012,
			"target":34962
		},
		{
			"buffer":0,
			"byteLength":4472,
			"byteOffset":323720,
			"target":34962
		},
		{
			"buffer":0,
			"byteLength":5760,
			"byteOffset":328192,
			"target":34963
		},
		{
			"buffer":0,
			"byteLength":6708,
			"byteOffset":333952,
			"target":34962
		},
		{
			"buffer":0,
			"byteLength":6708,
			"byteOffset":340660,
			"target":34962
		},
		{
			"buffer":0,
			"byteLength":4472,
			"byteOffset":347368,
			"target":34962
		},
		{
			"buffer":0,
			"byteLength":6708,
			"byteOffset":351840,
			"target":34962
		},
		{
			"buffer":0,
			"byteLength":6708,
			"byteOffset":358548,
			"target":34962
		},
		{
			"buffer":0,
			"byteLength":4472,
			"byteOffset":365256,
			"target":34962
		},
		{
			"buffer":0,
			"byteLength":5760,
			"byteOffset":369728,
			"target":34963
		},
		{
			"buffer":0,
			"byteLength":6708,
			"byteOffset":375488,
			"target":34962
		},
		{
			"buffer":0,
			"byteLength":6708,
			"byteOffset":382196,
			"target":34962
		},
		{
			"buffer":0,
			"byteLength":4472,
			"byteOffset":388904,
			"target":34962
		},
		{
			"buffer":0,
			"byteLength":6708,
			"byteOffset":393376,
			"target":34962
		},
		{
			"buffer":0,
			"byteLength":6708,
			"byteOffset":400084,
			"target":34962
		},
		{
			"buffer":0,
			"byteLength":4472,
			"byteOffset":406792,
			"target":34962
		},
		{
			"buffer":0,
			"byteLength":5760,
			"byteOffset":411264,
			"target":34963
		},
		{
			"buffer":0,
			"byteLength":288,
			"byteOffset":417024,
			"target":34962
		},
		{
			"buffer":0,
			"byteLength":288,
			"byteOffset":417312,
			"target":34962
		},
		{
			"buffer":0,
			"byteLength":192,
			"byteOffset":417600,
			"target":34962
		},
		{
			"buffer":0,
			"byteLength":72,
			"byteOffset":417792,
			"target":34963
		},
		{
			"buffer":0,
			"byteLength":288,
			"byteOffset":417864,
			"target":34962
		},
		{
			"buffer":0,
			"byteLength":288,
			"byteOffset":418152,
			"target":34962
		},
		{
			"buffer":0,
			"byteLength":192,
			"byteOffset":418440,
			"target":34962
		},
		{
			"buffer":0,
			"byteLength":288,
			"byteOffset":418632,
			"target":34962
		},
		{
			"buffer":0,
			"byteLength":288,
			"byteOffset":418920,
			"target":34962
		},
		{
			"buffer":0,
			"byteLength":192,
			"byteOffset":419208,
			"target":34962
		},
		{
			"buffer":0,
			"byteLength":1800,
			"byteOffset":419400,
			"target":34962
		},
		{
			"buffer":0,
			"byteLength":1800,
			"byteOffset":421200,
			"target":34962
		},
		{
			"buffer":0,
			"byteLength":1200,
			"byteOffset":423000,
			"target":34962
		},
		{
			"buffer":0,
			"byteLength":864,
			"byteOffset":424200,
			"target":34963
		}
	],
	"buffers":[
		{
			"byteLength":425064,
			"uri":"work1.bin"
		}
	]
}
